<svg width="1024" height="1024" xmlns="http://www.w3.org/2000/svg">
 <title>Test</title>

 <g>
  <title>Layer 1</title>
  <g stroke="null">

   <title stroke="null">Truffle-Illustrator-File</title>
   <text stroke="null" x="37.64078" y="164.7308" letter-spacing="-0.02em" font-style="italic" font-family="CenturySchoolbook-Italic, Century Schoolbook" fill="#231f20" font-size="14px" transform="matrix(5.577 0 0 5.577 -152.762 -591.986)" class="cls-1"/>
   <path stroke="#638B4D" stroke-width="1.68px" stroke-miterlimit="10" fill="#638B4D" d="m1525.19014,2805.7969a4.68468,4.68468 0 0 0 0.66924,0.72501a440.13678,440.13678 0 0 0 433.27707,-257.93621l-6.02316,11.154a64.74896,64.74896 0 0 0 3.79236,-9.98283a66.92399,66.92399 0 0 0 -46.4564,-82.7069l-3.45774,-0.78078l-0.66924,-2.2308l-279.5192,-78.46838l3.23466,1.17117c-1.61733,-0.5577 -3.29043,-1.17117 -5.0193,-1.6731a66.92399,66.92399 0 0 0 -82.65113,46.4564c-0.39039,1.28271 -0.61347,2.50965 -0.89232,3.79236l-2.17503,1.17117l-76.68374,273.27296a10.48476,10.48476 0 0 1 1.78464,2.17503a65.36243,65.36243 0 0 0 -3.17889,8.75589a66.92399,66.92399 0 0 0 46.4564,82.65113a65.69705,65.69705 0 0 0 17.51178,2.45388zm423.85194,-238.69557l-7.02702,13.21749l-0.89232,-2.84427a65.4182,65.4182 0 0 0 8.14242,-10.37322l-0.22308,0zm-316.99663,-179.57937l0.39039,0l0,0l-0.39039,0z" class="cls-2"/>
   <path stroke="#638B4D" stroke-width="1.68px" stroke-miterlimit="10" fill="#638B4D" d="m1052.31638,2312.34401l-0.72501,0.66924a440.08101,440.08101 0 0 0 257.88044,433.2213l-11.154,-5.96739a59.33927,59.33927 0 0 0 9.98283,3.73659a66.92399,66.92399 0 0 0 82.65113,-46.40063c0.33462,-1.17117 0.5577,-2.28657 0.78078,-3.45774l2.28657,-0.66924l78.46838,-279.5192l-1.22694,3.23466c0.61347,-1.61733 1.22694,-3.29043 1.72887,-5.0193a66.92399,66.92399 0 0 0 -46.4564,-82.65113c-1.28271,-0.39039 -2.50965,-0.61347 -3.79236,-0.89232l-1.17117,-2.17503l-273.27296,-76.68374a11.76747,11.76747 0 0 1 -2.2308,1.78464a64.58165,64.58165 0 0 0 -8.70012,-3.17889a66.92399,66.92399 0 0 0 -82.7069,46.4564a67.92785,67.92785 0 0 0 -2.34234,17.51178zm238.69557,423.85194l-13.21749,-7.02702l2.84427,-0.89232a68.87594,68.87594 0 0 0 10.37322,8.14242l0,-0.22308zm179.46783,-317.21971l0,0.33462l0,0a0.78078,0.78078 0 0 1 0,-0.11154l0,-0.22308z" class="cls-2"/>
   <path stroke="#638B4D" stroke-width="1.68px" stroke-miterlimit="10" fill="#638B4D" d="m1545.54619,1845.66072s-0.5577,-0.72501 -0.66924,-0.72501a440.13678,440.13678 0 0 0 -433.2213,258.15929l5.96739,-11.154a64.58165,64.58165 0 0 0 -3.73659,9.98283a66.92399,66.92399 0 0 0 46.4564,82.65113c1.1154,0.33462 2.28657,0.5577 3.40197,0.78078l0.72501,2.28657l279.5192,78.46838l-3.29043,-1.22694c1.6731,0.61347 3.29043,1.22694 5.0193,1.6731a66.92399,66.92399 0 0 0 82.7069,-46.40063c0.33462,-1.28271 0.5577,-2.56542 0.83655,-3.79236l2.2308,-1.17117l76.68374,-273.27296s-0.89232,-0.89232 -1.84041,-2.17503a64.58165,64.58165 0 0 0 3.17889,-8.70012a66.92399,66.92399 0 0 0 -46.40063,-82.7069a68.42978,68.42978 0 0 0 -17.56755,-2.67696zm-423.85194,238.75134l7.08279,-13.21749l0.89232,2.84427a69.21056,69.21056 0 0 0 -8.19819,10.37322l0.22308,0zm317.21971,179.46783l-0.33462,0l0,0l0.33462,0z" class="cls-2"/>
  </g>
  <rect stroke-width="0" stroke="#000" id="svg_6" height="1024" width="1024" y="-0.49999" x="0" fill="#ffffff"/>
  <g stroke="null">

   <title stroke="null">Truffle-Illustrator-File</title>
   <text stroke="null" x="120.99281" y="-13.05229" letter-spacing="-0.02em" font-style="italic" font-family="CenturySchoolbook-Italic, Century Schoolbook" fill="#231f20" font-size="14px" transform="matrix(4.93892 0 0 4.93892 -1317.06 -980.482)" class="cls-1"/>
   <path stroke="#638B4D" stroke-width="1.68px" stroke-miterlimit="10" fill="#638B4D" transform="translate(-221.09 -366.66)" d="m751.03384,1295.65725a4.14869,4.14869 0 0 0 0.59267,0.64206a389.77953,389.77953 0 0 0 383.70466,-228.42503l-5.33403,9.87784a57.34086,57.34086 0 0 0 3.35847,-8.84067a59.26703,59.26703 0 0 0 -41.1412,-73.24418l-3.06213,-0.69145l-0.59267,-1.97557l-247.53865,-69.4906l2.86457,1.03717c-1.43229,-0.49389 -2.91396,-1.03717 -4.44503,-1.48168a59.26703,59.26703 0 0 0 -73.19479,41.1412c-0.34572,1.13595 -0.54328,2.22251 -0.79023,3.35847l-1.92618,1.03717l-67.91014,242.00706a9.28517,9.28517 0 0 1 1.58045,1.92618a57.88414,57.88414 0 0 0 -2.81518,7.7541a59.26703,59.26703 0 0 0 41.1412,73.19479a58.18047,58.18047 0 0 0 15.50821,2.17312zm375.35789,-211.38576l-6.22304,11.70524l-0.79023,-2.51885a57.93353,57.93353 0 0 0 7.21082,-9.18639l-0.19756,0zm-280.72819,-159.03321l0.34572,0l0,0l-0.34572,0z" class="cls-2"/>
   <path stroke="#638B4D" stroke-width="1.68px" stroke-miterlimit="10" fill="#638B4D" transform="translate(-221.09 -366.66)" d="m332.26285,858.66165l-0.64206,0.59267a389.73014,389.73014 0 0 0 228.37564,383.65527l-9.87784,-5.28464a52.5501,52.5501 0 0 0 8.84067,3.30908a59.26703,59.26703 0 0 0 73.19479,-41.09181c0.29634,-1.03717 0.49389,-2.02496 0.69145,-3.06213l2.02496,-0.59267l69.4906,-247.53865l-1.08656,2.86457c0.54328,-1.43229 1.08656,-2.91396 1.53107,-4.44503a59.26703,59.26703 0 0 0 -41.1412,-73.19479c-1.13595,-0.34572 -2.22251,-0.54328 -3.35847,-0.79023l-1.03717,-1.92618l-242.00706,-67.91014a10.42112,10.42112 0 0 1 -1.97557,1.58045a57.19269,57.19269 0 0 0 -7.70471,-2.81518a59.26703,59.26703 0 0 0 -73.24418,41.1412a60.15604,60.15604 0 0 0 -2.07435,15.50821zm211.38576,375.35789l-11.70524,-6.22304l2.51885,-0.79023a60.99566,60.99566 0 0 0 9.18639,7.21082l0,-0.19756zm158.93443,-280.92574l0,0.29634l0,0a0.69145,0.69145 0 0 1 0,-0.09878l0,-0.19756z" class="cls-2"/>
   <path stroke="#638B4D" stroke-width="1.68px" stroke-miterlimit="10" fill="#638B4D" transform="translate(-221.09 -366.66)" d="m769.0609,445.37286s-0.49389,-0.64206 -0.59267,-0.64206a389.77953,389.77953 0 0 0 -383.65527,228.62259l5.28464,-9.87784a57.19269,57.19269 0 0 0 -3.30908,8.84067a59.26703,59.26703 0 0 0 41.1412,73.19479c0.98778,0.29634 2.02496,0.49389 3.01274,0.69145l0.64206,2.02496l247.53865,69.4906l-2.91396,-1.08656c1.48168,0.54328 2.91396,1.08656 4.44503,1.48168a59.26703,59.26703 0 0 0 73.24418,-41.09181c0.29634,-1.13595 0.49389,-2.2719 0.74084,-3.35847l1.97557,-1.03717l67.91014,-242.00706s-0.79023,-0.79023 -1.62984,-1.92618a57.19269,57.19269 0 0 0 2.81518,-7.70471a59.26703,59.26703 0 0 0 -41.09181,-73.24418a60.60054,60.60054 0 0 0 -15.5576,-2.37068zm-375.35789,211.43515l6.27243,-11.70524l0.79023,2.51885a61.29199,61.29199 0 0 0 -7.26021,9.18639l0.19756,0zm280.92574,158.93443l-0.29634,0l0,0l0.29634,0z" class="cls-2"/>
  </g>
 </g>
</svg>